<svg width="25" height="25" viewBox="0 0 25 25" fill="none" xmlns="http://www.w3.org/2000/svg">
<path d="M6.7617 0C3.02789 0 0 3.06961 0 6.85487V17.8227C0 21.6079 3.02789 24.6775 6.7617 24.6775H17.5804C21.3142 24.6775 24.3421 21.6079 24.3421 17.8227V6.85487C24.3421 3.06961 21.3142 0 17.5804 0H6.7617ZM20.2851 2.74195C21.0316 2.74195 21.6374 3.35614 21.6374 4.11292C21.6374 4.8697 21.0316 5.48389 20.2851 5.48389C19.5386 5.48389 18.9327 4.8697 18.9327 4.11292C18.9327 3.35614 19.5386 2.74195 20.2851 2.74195ZM12.1711 5.48389C15.9049 5.48389 18.9327 8.5535 18.9327 12.3388C18.9327 16.124 15.9049 19.1936 12.1711 19.1936C8.43724 19.1936 5.40936 16.124 5.40936 12.3388C5.40936 8.5535 8.43724 5.48389 12.1711 5.48389ZM12.1711 8.22584C11.0951 8.22584 10.0631 8.65916 9.30231 9.43049C8.54147 10.2018 8.11404 11.2479 8.11404 12.3388C8.11404 13.4296 8.54147 14.4757 9.30231 15.247C10.0631 16.0184 11.0951 16.4517 12.1711 16.4517C13.247 16.4517 14.279 16.0184 15.0398 15.247C15.8006 14.4757 16.2281 13.4296 16.2281 12.3388C16.2281 11.2479 15.8006 10.2018 15.0398 9.43049C14.279 8.65916 13.247 8.22584 12.1711 8.22584Z" fill="white"/>
</svg>
