<svg width="28" height="22" viewBox="0 0 28 22" fill="none" xmlns="http://www.w3.org/2000/svg">
<path d="M13.75 0C13.75 0 5.15013 -4.2553e-05 3.00513 0.567294C1.82125 0.879464 0.890957 1.79912 0.574707 2.96636C-4.31091e-05 5.08369 0 10.8581 0 10.8581C0 10.8581 -4.31091e-05 16.6325 0.574707 18.7499C0.890957 19.9185 1.82263 20.8368 3.00513 21.1489C5.15013 21.7163 13.75 21.7162 13.75 21.7162C13.75 21.7162 22.3499 21.7163 24.4949 21.1489C25.6774 20.8368 26.609 19.9171 26.9253 18.7499C27.5 16.6325 27.5 10.8581 27.5 10.8581C27.5 10.8581 27.5 5.08369 26.9253 2.96636C26.609 1.79912 25.6774 0.879464 24.4949 0.567294C22.3499 -4.2553e-05 13.75 0 13.75 0ZM13.75 2.71453C17.7127 2.71453 22.675 2.89587 23.7832 3.18904C24.0156 3.25012 24.206 3.43812 24.2693 3.66885C24.6007 4.88768 24.75 8.60777 24.75 10.8581C24.75 13.1085 24.6007 16.8272 24.2693 18.0474C24.2074 18.2767 24.017 18.4647 23.7832 18.5272C22.6763 18.8203 17.7127 19.0017 13.75 19.0017C9.78862 19.0017 4.82642 18.8203 3.7168 18.5272C3.48442 18.4661 3.29396 18.2781 3.23071 18.0474C2.89934 16.8285 2.75 13.1085 2.75 10.8581C2.75 8.60777 2.89934 4.88774 3.23071 3.6662C3.29259 3.43818 3.48305 3.25012 3.7168 3.18904C4.82367 2.89587 9.78725 2.71453 13.75 2.71453ZM11 6.1554V15.5608L19.25 10.8581L11 6.1554Z" fill="white"/>
</svg>
